<?xml version="1.0" encoding="UTF-8" standalone="no"?>
<!-- Created with Inkscape (http://www.inkscape.org/) -->

<svg
   xmlns:dc="http://purl.org/dc/elements/1.1/"
   xmlns:cc="http://creativecommons.org/ns#"
   xmlns:rdf="http://www.w3.org/1999/02/22-rdf-syntax-ns#"
   xmlns:svg="http://www.w3.org/2000/svg"
   xmlns="http://www.w3.org/2000/svg"
   xmlns:sodipodi="http://sodipodi.sourceforge.net/DTD/sodipodi-0.dtd"
   xmlns:inkscape="http://www.inkscape.org/namespaces/inkscape"
   width="128"
   height="192"
   viewBox="0 0 128 192"
   id="svg3462"
   version="1.1"
   inkscape:version="0.91 r13725"
   sodipodi:docname="marker.svg">
  <defs
     id="defs3464" />
  <sodipodi:namedview
     id="base"
     pagecolor="#ffffff"
     bordercolor="#666666"
     borderopacity="1.0"
     inkscape:pageopacity="0.0"
     inkscape:pageshadow="2"
     inkscape:zoom="3.4140625"
     inkscape:cx="238.86499"
     inkscape:cy="91.036563"
     inkscape:document-units="px"
     inkscape:current-layer="svg3462"
     showgrid="false"
     units="px"
     fit-margin-top="0"
     fit-margin-left="0"
     fit-margin-right="0"
     fit-margin-bottom="0"
     inkscape:window-width="1920"
     inkscape:window-height="1050"
     inkscape:window-x="0"
     inkscape:window-y="30"
     inkscape:window-maximized="1" />
  <metadata
     id="metadata3467">
    <rdf:RDF>
      <cc:Work
         rdf:about="">
        <dc:format>image/svg+xml</dc:format>
        <dc:type
           rdf:resource="http://purl.org/dc/dcmitype/StillImage" />
        <dc:title />
      </cc:Work>
    </rdf:RDF>
  </metadata>
  <path
     style="fill:#000080;fill-opacity:1"
     d="M 64,0 C 28,0 0,28 0,64 0,100 22,128 64,192 106,128 128,100 128,64 128,28 100,0 64,0 Z m 0,40 A 24,24 0 0 1 88,64 24,24 0 0 1 64,88 24,24 0 0 1 40,64 24,24 0 0 1 64,40 Z"
     id="path3470"
     inkscape:connector-curvature="0" />
  <path
     inkscape:connector-curvature="0"
     id="path3333"
     d="M 64,0 C 28,0 0,28 0,64 0,100 22,128 64,192 106,128 128,100 128,64 128,28 100,0 64,0 Z m 0,40 A 24,24 0 0 1 88,64 24,24 0 0 1 64,88 24,24 0 0 1 40,64 24,24 0 0 1 64,40 Z"
     style="fill:#000080;fill-opacity:1" />
</svg>
